<svg xmlns="http://www.w3.org/2000/svg" viewBox="0 0 920 500" font-family="system-ui, Arial, sans-serif">
  <defs>
    <marker id="arr" viewBox="0 0 10 10" refX="9" refY="5" markerWidth="7" markerHeight="7" orient="auto">
      <path d="M0,0 L10,5 L0,10 Z" fill="#475569"/>
    </marker>
    <marker id="arrDash" viewBox="0 0 10 10" refX="9" refY="5" markerWidth="7" markerHeight="7" orient="auto">
      <path d="M0,0 L10,5 L0,10 Z" fill="#94a3b8"/>
    </marker>
  </defs>

  <rect width="920" height="500" fill="#fafafa" rx="8"/>
  <text x="460" y="32" text-anchor="middle" font-size="18" font-weight="bold" fill="#1e293b">EdgeAI Platform 架构</text>

  <!-- app -->
  <rect x="355" y="48" width="210" height="52" rx="6" fill="#e0e7ff" stroke="#6366f1" stroke-width="1.5"/>
  <text x="460" y="70" text-anchor="middle" font-size="13" font-weight="bold" fill="#1e293b">app · default.yaml</text>
  <text x="460" y="86" text-anchor="middle" font-size="10" fill="#64748b">runtime/app/ · 读配置启动</text>

  <!-- vision band label -->
  <rect x="24" y="108" width="872" height="168" rx="8" fill="#f1f5f9" stroke="#cbd5e1" stroke-width="1"/>
  <text x="44" y="128" font-size="12" font-weight="bold" fill="#475569">每帧视觉主路（NPU）</text>

  <!-- vision nodes -->
  <rect x="40" y="145" width="88" height="58" rx="5" fill="#fff" stroke="#64748b" stroke-width="1.5"/>
  <text x="84" y="168" text-anchor="middle" font-size="12" font-weight="bold">摄像头</text>
  <text x="84" y="184" text-anchor="middle" font-size="9" fill="#64748b">V4L2 / 视频</text>
  <text x="84" y="196" text-anchor="middle" font-size="9" fill="#64748b">输入源</text>

  <rect x="148" y="145" width="100" height="58" rx="5" fill="#fff" stroke="#64748b" stroke-width="1.5"/>
  <text x="198" y="168" text-anchor="middle" font-size="12" font-weight="bold">capture</text>
  <text x="198" y="184" text-anchor="middle" font-size="9" fill="#64748b">runtime/capture/</text>
  <text x="198" y="196" text-anchor="middle" font-size="9" fill="#64748b">采集旋转</text>

  <rect x="268" y="145" width="108" height="58" rx="5" fill="#fff" stroke="#64748b" stroke-width="1.5"/>
  <text x="322" y="168" text-anchor="middle" font-size="12" font-weight="bold">Pipeline</text>
  <text x="322" y="184" text-anchor="middle" font-size="9" fill="#64748b">runtime/engine/</text>
  <text x="322" y="196" text-anchor="middle" font-size="9" fill="#64748b">多线程队列</text>

  <rect x="396" y="118" width="88" height="52" rx="5" fill="#fff" stroke="#0ea5e9" stroke-width="1.5"/>
  <text x="440" y="140" text-anchor="middle" font-size="12" font-weight="bold">YOLO</text>
  <text x="440" y="154" text-anchor="middle" font-size="9" fill="#64748b">adapters/yolo</text>
  <text x="440" y="166" text-anchor="middle" font-size="9" fill="#64748b">人体 RKNN</text>

  <rect x="396" y="178" width="88" height="52" rx="5" fill="#fff" stroke="#0ea5e9" stroke-width="1.5"/>
  <text x="440" y="200" text-anchor="middle" font-size="12" font-weight="bold">SCRFD</text>
  <text x="440" y="214" text-anchor="middle" font-size="9" fill="#64748b">adapters/scrfd</text>
  <text x="440" y="226" text-anchor="middle" font-size="9" fill="#64748b">人脸 RKNN</text>

  <rect x="504" y="145" width="100" height="58" rx="5" fill="#fff" stroke="#64748b" stroke-width="1.5"/>
  <text x="554" y="168" text-anchor="middle" font-size="12" font-weight="bold">display</text>
  <text x="554" y="184" text-anchor="middle" font-size="9" fill="#64748b">runtime/display/</text>
  <text x="554" y="196" text-anchor="middle" font-size="9" fill="#64748b">画框预览</text>

  <rect x="624" y="145" width="88" height="58" rx="5" fill="#fff" stroke="#64748b" stroke-width="1.5"/>
  <text x="668" y="172" text-anchor="middle" font-size="12" font-weight="bold">预览窗口</text>
  <text x="668" y="188" text-anchor="middle" font-size="9" fill="#64748b">OpenCV</text>
  <text x="668" y="200" text-anchor="middle" font-size="9" fill="#64748b">竖屏布局</text>

  <!-- vision arrows solid -->
  <line x1="128" y1="174" x2="143" y2="174" stroke="#475569" stroke-width="2" marker-end="url(#arr)"/>
  <line x1="248" y1="174" x2="263" y2="174" stroke="#475569" stroke-width="2" marker-end="url(#arr)"/>
  <line x1="376" y1="174" x2="391" y2="144" stroke="#475569" stroke-width="2" marker-end="url(#arr)"/>
  <line x1="376" y1="174" x2="391" y2="204" stroke="#475569" stroke-width="2" marker-end="url(#arr)"/>
  <line x1="484" y1="144" x2="499" y2="164" stroke="#475569" stroke-width="2" marker-end="url(#arr)"/>
  <line x1="484" y1="204" x2="499" y2="184" stroke="#475569" stroke-width="2" marker-end="url(#arr)"/>
  <line x1="604" y1="174" x2="619" y2="174" stroke="#475569" stroke-width="2" marker-end="url(#arr)"/>

  <!-- dialogue band -->
  <rect x="24" y="292" width="872" height="168" rx="8" fill="#fefce8" stroke="#fde047" stroke-width="1"/>
  <text x="44" y="312" font-size="12" font-weight="bold" fill="#713f12">策略与对话支路（按需）</text>

  <rect x="80" y="328" width="130" height="58" rx="5" fill="#fff" stroke="#d97706" stroke-width="1.5"/>
  <text x="145" y="351" text-anchor="middle" font-size="12" font-weight="bold">ModelCoordinator</text>
  <text x="145" y="367" text-anchor="middle" font-size="9" fill="#64748b">runtime/platform/</text>
  <text x="145" y="379" text-anchor="middle" font-size="9" fill="#64748b">场景启停槽</text>

  <rect x="250" y="328" width="120" height="58" rx="5" fill="#fff" stroke="#d97706" stroke-width="1.5"/>
  <text x="310" y="351" text-anchor="middle" font-size="12" font-weight="bold">LlmGreeting</text>
  <text x="310" y="367" text-anchor="middle" font-size="9" fill="#64748b">runtime/platform/</text>
  <text x="310" y="379" text-anchor="middle" font-size="9" fill="#64748b">人脸门控</text>

  <rect x="410" y="328" width="110" height="58" rx="5" fill="#fff" stroke="#9333ea" stroke-width="1.5"/>
  <text x="465" y="351" text-anchor="middle" font-size="12" font-weight="bold">LlmWorker</text>
  <text x="465" y="367" text-anchor="middle" font-size="9" fill="#64748b">adapters/llm/</text>
  <text x="465" y="379" text-anchor="middle" font-size="9" fill="#64748b">独立推理线程</text>

  <rect x="560" y="328" width="100" height="58" rx="5" fill="#fff" stroke="#9333ea" stroke-width="1.5"/>
  <text x="610" y="355" text-anchor="middle" font-size="12" font-weight="bold">RKLLM</text>
  <text x="610" y="371" text-anchor="middle" font-size="9" fill="#64748b">.rkllm 权重</text>
  <text x="610" y="383" text-anchor="middle" font-size="9" fill="#64748b">rkllm_run</text>

  <rect x="280" y="410" width="72" height="36" rx="4" fill="#ecfdf5" stroke="#10b981" stroke-width="1.5"/>
  <text x="316" y="432" text-anchor="middle" font-size="11" font-weight="bold" fill="#065f46">YOU</text>

  <rect x="580" y="410" width="72" height="36" rx="4" fill="#ecfdf5" stroke="#10b981" stroke-width="1.5"/>
  <text x="616" y="432" text-anchor="middle" font-size="11" font-weight="bold" fill="#065f46">AI</text>

  <!-- dialogue arrows solid -->
  <line x1="210" y1="357" x2="245" y2="357" stroke="#475569" stroke-width="2" marker-end="url(#arr)"/>
  <line x1="370" y1="357" x2="405" y2="357" stroke="#475569" stroke-width="2" marker-end="url(#arr)"/>
  <line x1="520" y1="357" x2="555" y2="357" stroke="#475569" stroke-width="2" marker-end="url(#arr)"/>
  <line x1="316" y1="410" x2="316" y2="391" stroke="#475569" stroke-width="2" marker-end="url(#arr)"/>
  <line x1="610" y1="386" x2="616" y2="406" stroke="#475569" stroke-width="2" marker-end="url(#arr)"/>

  <!-- dashed: app to pipeline & coordinator -->
  <line x1="420" y1="100" x2="322" y2="140" stroke="#94a3b8" stroke-width="1.5" stroke-dasharray="5,4" marker-end="url(#arrDash)"/>
  <line x1="500" y1="100" x2="145" y2="323" stroke="#94a3b8" stroke-width="1.5" stroke-dasharray="5,4" marker-end="url(#arrDash)"/>

  <!-- dashed: yolo/scrfd signals to coordinator -->
  <line x1="440" y1="230" x2="145" y2="323" stroke="#94a3b8" stroke-width="1.5" stroke-dasharray="5,4" marker-end="url(#arrDash)"/>
  <text x="248" y="268" font-size="9" fill="#94a3b8">person / face 信号</text>

  <!-- legend -->
  <line x1="720" y1="468" x2="760" y2="468" stroke="#475569" stroke-width="2" marker-end="url(#arr)"/>
  <text x="770" y="472" font-size="10" fill="#64748b">实线 · 帧/数据</text>
  <line x1="720" y1="488" x2="760" y2="488" stroke="#94a3b8" stroke-width="1.5" stroke-dasharray="5,4" marker-end="url(#arrDash)"/>
  <text x="770" y="492" font-size="10" fill="#64748b">虚线 · 配置/信号</text>
</svg>
